# xmcd
#
# Track frame offsets:
#	150
#	14973
#	29375
#	46057
#	59296
#	72966
#	86979
#	104560
#	120567
#	137844
#	151296
#
# Disc length: 2231 seconds
#
# Revision: 2
# Processed by: cddbd v1.5.2PL0 Copyright (c) Steve Scherf et al.
# Submitted via: audiograbber 1.83.01
#
DISCID=9b08b50b
DTITLE=Gretchen Wilson - I Got Your Country Right Here
DYEAR=2010
DGENRE=Country
TTITLE0=I Got Your Country Right Here
TTITLE1=Work Hard, Play Harder
TTITLE2=I'm Only Human
TTITLE3=Earrings Song
TTITLE4=Trucker Man
TTITLE5=Blue Collar Done Turn Red
TTITLE6=Outlaws and Renegades
TTITLE7=Walk On Water
TTITLE8=Love On The Line
TTITLE9=As Far As You Know
TTITLE10=I'd Love To Be Your Last
EXTD=
EXTT0=
EXTT1=
EXTT2=
EXTT3=
EXTT4=
EXTT5=
EXTT6=
EXTT7=
EXTT8=
EXTT9=
EXTT10=
PLAYORDER=
